<svg xmlns="http://www.w3.org/2000/svg" width="300" height="300" viewBox="0 0 300 300">
    <path fill="#D94A54" d="M11 135.038l8.508 47.187 39.986 42.996 25.524 28.927 52.748 24.254 52.748-25.103 44.24-8.508 20.42-45.94 33.18-35.735V133.34"/>
    <path fill="#CE4956" d="M56.09 153.75l-4.24 22.998 25.52 14.19 19.315-41.654-13.702-.55"/>
    <path fill="#CE4956" d="M13.308 147.84l60.96 69.753 3.102-26.655-25.52-14.19"/>
    <path fill="#AF4156" d="M74.267 217.593l-24.83-3.19-29.93-32.18"/>
    <path fill="#D84E62" d="M118.198 153.75l-9.07 48.505-34.86 15.338 3.102-26.655"/>
    <path fill="#A03C4F" d="M74.267 217.593l10.75 36.554-35.58-39.742"/>
    <path fill="#AA3D4D" d="M85.018 254.146l59.273-6.496-6.523 30.75"/>
    <path fill="#933746" d="M190.514 253.296l-46.223-5.646-6.523 30.75"/>
    <path fill="#B24051" d="M109.13 202.255L91.7 227.8l-6.682 26.347-10.75-36.554"/>
    <path fill="#C6475A" d="M91.7 227.8l-17.433-10.207 34.862-15.338"/>
    <path fill="#DD526D" d="M77.37 190.938l19.315-41.653 21.513 4.467"/>
    <path fill="#893444" d="M85.018 254.146l6.68-26.346 17.43-25.545 57.28-16.583v42.53l-39.13 29.09"/>
    <path fill="#C14D74" d="M166.41 225.533l53.876-48.785 5.672-28.345-38.565 28.345-20.983 8.924"/>
    <path fill="#C44759" d="M118.198 153.75l18.717-5.104 25.522-4.25 17.017 9.355-43.99 40.88-26.335 7.626"/>
    <path fill="#C14658" d="M220.286 176.748L202.14 228.2l-11.626 25.096-56.08-1.812 31.975-25.95"/>
    <path fill="#B7445A" d="M214.025 194.5l17.604 33.3-41.116 25.496"/>
    <path fill="#CC4C65" d="M190.514 253.296l44.24-8.508 20.42-45.94-3.404-54.452-20.14 83.405"/>
    <path fill="#C94F72" d="M231.63 227.8l-5.672-79.397-11.933 46.096"/>
    <path fill="none" d="M251.77 144.396l11.06 5.1 25.524-16.16v29.778l-33.18 35.733"/>
    <path fill="#CC4C65" d="M109.13 202.255l70.324-48.504 25.522-9.353 20.98 4.007-38.564 28.345-20.983 8.923"/>
    <path fill="#B7445A" d="M231.63 227.8l-5.672-79.397 25.812-4.007"/>
    <path fill="#DD5065" d="M262.83 148.778l-7.657 49.348 33.18-35.73v-29.06"/>
    <path fill="#AA3F54" d="M255.173 198.848l-3.403-54.45 11.06 5.1"/>
    <path fill="#B74253" d="M109.13 202.255l18.147 55.037-35.578-29.49"/>
    <path fill="#C14658" d="M91.7 227.8l-6.682 26.347 42.26 3.146"/>
    <path fill="#C14966" d="M109.13 202.255l57.28-16.583v39.86l-39.133 31.76"/>
    <path fill="#B24665" d="M187.393 176.748l-2.2 31.775 32.917-29.805 7.85-30.317"/>
    <path fill="#C14658" d="M74.267 217.593l-60.96-69.753 6.2 34.385"/>
    <path fill="#DD5065" d="M51.85 176.748l4.24-22.997-30.627-11.904-12.155 5.995"/>
    <path fill="#E5DA8C" d="M11 135.038l2.308 12.802 12.155-5.995s11.06 4.338 13.612 5.995c2.553 1.657 17.016 5.91 17.016 5.91l24.674-5.103 21.27.85 16.165 4.255 18.716-5.104 25.523-4.25 17.016 9.354 25.522-9.355 20.98 4.008 25.812-4.008 11.06 5.102 15.313-7.654 10.21-8.507L11 135.037z"/>
    <path fill="#FFF59A" d="M21.21 119.494s85.726-5.685 88.278-4.606c2.552 1.08 64.01 4.606 64.01 4.606l65.51-4.874 49.346 18.718-44.814 5.424-43.748-2.114-83.295 5.197-60.405-1.702L11 135.038l10.21-15.544z"/>
    <path opacity=".1" d="M142.193 139.148L80.02 120.8l128.585-22.84"/>
    <path fill="#F4E9E9" d="M82.34 102.375l126.266-4.415-66.413 41.188-17.19-16.368-19.005 5.457.79-23.255"/>
    <path fill="#F4E9E9" d="M106.788 104.982l-24.45-2.607 126.268-4.415m-66.413 41.188l66.413-41.188-95.024 13.944"/>
    <path fill="#E5DCDC" d="M105.998 128.237l.79-23.255 101.817-7.022-95.024 13.944"/>
    <path fill="#AFAEAE" d="M105.998 128.237l7.583-16.333 11.424 10.876"/>
    <path d="M234.657 125c-.048 0-.097-.006-.146-.02-.256-.08-.4-.352-.32-.61l3.337-10.827c.08-.257.354-.4.608-.322.26.08.4.354.322.61l-3.337 10.828c-.063.21-.256.344-.463.344V125z"/>
    <path d="M239.777 125c-.232 0-.44-.168-.48-.407l-1.783-10.828c-.043-.265.137-.516.4-.56.266-.044.518.136.56.4l1.786 10.83c.043.265-.136.516-.4.56-.028.004-.055.006-.083.005z"/>
    <path fill="#F00" d="M231.5 104.613c-.303 0-.5-.245-.5-.548v-5.112c0-.303.197-.548.5-.548s.5.245.5.548v5.112c0 .303-.197.548-.5.548z"/>
    <path d="M237.555 107.585l-4.3-.357-1.29-2.447c.166-.167.27-.405.27-.67 0-.51-.387-.925-.866-.925s-.868.415-.868.926c0 .384.218.71.528.854 0 .08.015.158.054.232l1.438 2.724.002.004.01.017c.014.02.025.04.04.058l.014.017c.02.02.037.04.058.055l.004.002c.02.018.045.032.07.046l.02.01c.02.01.043.02.064.026.006 0 .01.003.016.005.027.006.056.01.084.014h.01l4.562.38h.04c.25 0 .464-.19.484-.445.02-.27-.178-.504-.445-.525z"/>
    <g>
        <path fill="#F00" d="M244.5 104.857c-.303 0-.5-.246-.5-.548v-5.114c0-.302.197-.547.5-.547s.5.244.5.546v5.112c0 .3-.197.547-.5.547v.002z"/>
        <path d="M245.38 104.718c0-.512-.388-.926-.866-.926-.48 0-.867.415-.867.926 0 .26.103.498.266.666l-1.57 2.315-4.313-.12c-.27-.008-.492.205-.5.474-.008.27.205.493.475.5l4.577.215c.005 0 .01.09.013.09.03 0 .06-.094.088-.1.008 0 .014-.046.02-.047.025-.006.052-.036.076-.046.005-.002.01-.016.015-.018.023-.01.046-.028.066-.04l.01-.01c.022-.014.044-.033.063-.052l.012-.014c.02-.017.033-.036.05-.056l.007-.01.002-.003 1.73-2.55c.065-.1.09-.215.076-.327.336-.128.575-.47.575-.872l-.005.002z"/>
    </g>
    <circle cx="237.915" cy="103.792" r="2.968"/>
    <path d="M237.914 113.7c-.276 0-.5-.224-.5-.5v-6.73c0-.276.224-.5.5-.5s.5.224.5.5v6.73c0 .276-.224.5-.5.5z"/>
    <circle fill="#3FFFEE" cx="236.841" cy="103.185" r=".829"/>
</svg>