<svg xmlns="http://www.w3.org/2000/svg" width="300" height="300" viewBox="0 0 300 300">
    <path fill="#D94A54" d="M11 135.038l8.508 47.187 39.986 42.996 25.524 28.927 52.748 24.254 52.748-25.103 44.24-8.508 20.42-45.94 33.18-35.735V133.34"/>
    <path fill="#CE4956" d="M56.09 153.75l-4.24 22.998 25.52 14.19 19.315-41.654-13.702-.55"/>
    <path fill="#CE4956" d="M13.308 147.84l60.96 69.753 3.102-26.655-25.52-14.19"/>
    <path fill="#AF4156" d="M74.267 217.593l-24.83-3.19-29.93-32.18"/>
    <path fill="#D84E62" d="M118.198 153.75l-9.07 48.505-34.86 15.338 3.102-26.655"/>
    <path fill="#A03C4F" d="M74.267 217.593l10.75 36.554-35.58-39.742"/>
    <path fill="#AA3D4D" d="M85.018 254.146l59.273-6.496-6.523 30.75"/>
    <path fill="#933746" d="M190.514 253.296l-46.223-5.646-6.523 30.75"/>
    <path fill="#B24051" d="M109.13 202.255L91.7 227.8l-6.682 26.347-10.75-36.554"/>
    <path fill="#C6475A" d="M91.7 227.8l-17.433-10.207 34.862-15.338"/>
    <path fill="#DD526D" d="M77.37 190.938l19.315-41.653 21.513 4.467"/>
    <path fill="#893444" d="M85.018 254.146l6.68-26.346 17.43-25.545 57.28-16.583v42.53l-39.13 29.09"/>
    <path fill="#C14D74" d="M166.41 225.533l53.876-48.785 5.672-28.345-38.565 28.345-20.983 8.924"/>
    <path fill="#C44759" d="M118.198 153.75l18.717-5.104 25.522-4.25 17.017 9.355-43.99 40.88-26.335 7.626"/>
    <path fill="#C14658" d="M220.286 176.748L202.14 228.2l-11.626 25.096-56.08-1.812 31.975-25.95"/>
    <path fill="#B7445A" d="M214.025 194.5l17.604 33.3-41.116 25.496"/>
    <path fill="#CC4C65" d="M190.514 253.296l44.24-8.508 20.42-45.94-3.404-54.452-20.14 83.405"/>
    <path fill="#C94F72" d="M231.63 227.8l-5.672-79.397-11.933 46.096"/>
    <path fill="none" d="M251.77 144.396l11.06 5.1 25.524-16.16v29.778l-33.18 35.733"/>
    <path fill="#CC4C65" d="M109.13 202.255l70.324-48.504 25.522-9.353 20.98 4.007-38.564 28.345-20.983 8.923"/>
    <path fill="#B7445A" d="M231.63 227.8l-5.672-79.397 25.812-4.007"/>
    <path fill="#DD5065" d="M262.83 148.778l-7.657 49.348 33.18-35.73v-29.06"/>
    <path fill="#AA3F54" d="M255.173 198.848l-3.403-54.45 11.06 5.1"/>
    <path fill="#B74253" d="M109.13 202.255l18.147 55.037-35.578-29.49"/>
    <path fill="#C14658" d="M91.7 227.8l-6.682 26.347 42.26 3.146"/>
    <path fill="#C14966" d="M109.13 202.255l57.28-16.583v39.86l-39.133 31.76"/>
    <path fill="#B24665" d="M187.393 176.748l-2.2 31.775 32.917-29.805 7.85-30.317"/>
    <path fill="#C14658" d="M74.267 217.593l-60.96-69.753 6.2 34.385"/>
    <path fill="#DD5065" d="M51.85 176.748l4.24-22.997-30.627-11.904-12.155 5.995"/>
    <path fill="#631F3B" d="M11 135.038l2.308 12.802 12.155-5.995s11.06 4.338 13.612 5.995c2.553 1.657 17.016 5.91 17.016 5.91l24.674-5.103 21.27.85 16.165 4.255 18.716-5.104 25.523-4.25 17.016 9.354 25.522-9.355 20.98 4.008 25.812-4.008 11.06 5.102 15.313-7.654 10.21-8.507L11 135.037z"/>
    <path fill="#7A2543" d="M21.21 119.494s85.726-5.685 88.278-4.606c2.552 1.08 64.01 4.606 64.01 4.606l65.51-4.874 49.346 18.718-44.814 5.424-43.748-2.114-83.295 5.197-60.405-1.702L11 135.038l10.21-15.544z"/>
    <ellipse opacity=".2" cx="101.305" cy="129.782" rx="26.157" ry="2.719"/>
    <path fill="#4AFFAF" d="M156.102 80.68l-2.49 1.994-3.866 18.784 2.237 2.436 12.03 3.723 5.958.534 7.084-4.98-1.254-13.993-1.944-2.862-3.446-2.33"/>
    <path fill="#42D38A" d="M182.508 99.333c-.24-.708-9.918-14.876-9.918-14.876l-9.794 17 19.712-2.124z"/>
    <path fill="#45E599" d="M172.59 84.457l-18.52-4.014 8.726 21.015"/>
    <path fill="#4AFFAF" d="M154.07 80.443l-4.662 22.654 13.388-1.64"/>
    <path fill="#31A36D" d="M149.408 103.097l19.27 5.963 13.83-9.727"/>
    <ellipse fill="#16442C" cx="166.992" cy="104.833" rx="2.979" ry=".638"/>
    <path fill="#8C5E3B" d="M168.952 104.512s-.952-.556-3.952-.103V122h4.007l-.055-17.488z"/>
    <path fill="#AD7547" d="M165 122l2.33-7.148L165 104.41"/>
    <g>
        <path fill="#4AFFAF" d="M219.37 97.79l2.773-3.47 2.15-1.092 12.727 5.72 1.567 4.15-3.702 10.388-14.155-.9-8.26-4.023v-2.14"/>
        <path fill="#4AFFAF" d="M223.354 92.806l-12.115 15.158 9.49 4.622 5.564-12.145"/>
        <path fill="#42DB92" d="M226.293 100.44l8.592 13.046 4.76-13.358"/>
        <path fill="#45E599" d="M226.293 100.44l8.592 13.046-14.154-.9"/>
        <path fill="#3FC984" d="M239.646 100.128l-16.293-7.322 2.94 7.635"/>
        <path fill="#42D189" d="M223.354 92.806l-2.623 19.78-9.49-4.622"/>
        <ellipse fill="#16442C" cx="227.873" cy="111.857" rx="1.761" ry=".376"/>
        <path fill="#AD7547" d="M229.184 111.667s-1.184-.33-2.184-.06V122h2.063l.12-10.333z"/>
        <path fill="#8C5E3B" d="M229.184 111.667l-1.092 2.208.547 2.875-.265 1.5.688 3.75"/>
    </g>
    <g>
        <path fill="#4AFFAF" d="M247.616 83.165l16.518-7.424h3.733l22.506 28.154-2.02 2.49-16.214 7.102-28.363 2.456-8.892-25.127 1.224-2.48"/>
        <path fill="#42DB92" d="M260.994 89.804l-17.217 26.138-9.54-26.765"/>
        <path fill="#45E599" d="M260.994 89.804l-17.217 26.138 28.36-1.805"/>
        <path fill="#3FC984" d="M234.238 89.177l32.643-14.67-5.885 15.297"/>
        <path fill="#4AFFAF" d="M266.88 74.506l24.278 30.37-19.02 9.26-11.145-24.332"/>
        <path fill="#42D189" d="M266.88 74.506l5.257 39.63 19.02-9.26"/>
        <ellipse fill="#16442C" cx="257.828" cy="112.677" rx="3.527" ry=".755"/>
        <path fill="#AD7547" d="M255.414 112.296s1.586-.658 4.586-.122V133h-4.56l-.026-20.704z"/>
        <path fill="#8C5E3B" d="M260 112.174l-2.043 7.514L260 133"/>
    </g>
    <g>
        <path fill="#4AFFAF" d="M170.808 97.79l12.71-18.99 1.973-1.82 23.963-5.195 1.785.746 6.36 30.03-2.76 2.273-17.906 5.54-8.545 1.128"/>
        <path fill="#45E599" d="M170.41 98.496c.343-1.016 14.223-21.33 14.223-21.33l14.043 24.377-28.266-3.047zm14.223-21.33l26.555-5.757-12.51 30.132"/>
        <path fill="#4AFFAF" d="M211.188 71.41l6.686 32.484-19.197-2.35"/>
        <path fill="#31A36D" d="M217.873 103.894l-27.633 8.55-19.83-13.948"/>
        <ellipse fill="#16442C" cx="192.659" cy="106.384" rx="4.272" ry=".915"/>
        <path fill="#AD7547" d="M190.092 105.923s1.908-.797 5.908-.148V131h-6.23l.322-25.077z"/>
        <path fill="#8C5E3B" d="M196 131l-3.34-10.25 3.34-14.975"/>
    </g>
    <g>
        <path fill="#D39C54" d="M89.68 101.004l-3.768-29.72 10.145-3.2 6.54.11-.755 33.496"/>
        <path fill="#D39C54" d="M113.045 101.004l3.77-29.72-10.145-3.2-6.54.11.754 33.496"/>
        <g fill="#FFEA4F">
            <circle cx="61.583" cy="84.344" r="3.992"/>
            <circle cx="131.706" cy="84.886" r="2.485"/>
            <circle cx="112.521" cy="47.701" r="4.104"/>
            <circle cx="111.695" cy="119.36" r="3.481"/>
        </g>
        <path fill="#896037" d="M85.912 71.284l1.688 11.39 14.29-5.695"/>
        <path fill="#724F2F" d="M85.912 71.284l10.145-3.2 6.54.11-.707 8.785M101.89 76.98l-.445 14.58L87.6 82.675"/>
        <path fill="#543924" d="M87.6 82.674l1.807 16.283 12.038-7.396"/>
        <path fill="#3F2A1C" d="M101.445 91.56l.397 10.13-12.16-.686-.275-2.047"/>
        <g>
            <path fill="#896037" d="M116.814 71.284l-1.687 11.39-14.29-5.695"/>
            <path fill="#724F2F" d="M116.814 71.284l-10.144-3.2-6.54.11.707 8.785M100.837 76.98l.444 14.58 13.847-8.886"/>
            <path fill="#543924" d="M115.127 82.674l-1.808 16.283-12.04-7.396"/>
            <path fill="#3F2A1C" d="M101.28 91.56l-.396 10.13 12.16-.686.275-2.047"/>
        </g>
        <g>
            <path fill="#DBCC91" d="M111.064 92.456v-1.718l-2.678-2.07-4.326.263-2.732.643-3.198-.642-3.96-.004-1.662 1.635-.19 1.896.492 2.313 1.11 2.4 4.28.31 3.295-.743 3.023.608 2.492.444 2.8-.843 1.254-1.73"/>
            <path fill="none" stroke="#AD9F74" stroke-width=".5" stroke-miterlimit="10" d="M108.222 97.82l.992-9.1m-4.405 0l.214 8.788m-4.187-.393l.47-7.844m-4.56-.636l1.606 8.873m-4.91.314s-.375-9.06-.255-9.1m-2.468 4.55l21.43-.198"/>
            <path fill="#8C6838" d="M89.938 92.26l.616 2.9 1.393 3.012 5.366.386 4.132-.93 3.79.762 3.126.557 3.51-1.055 1.574-2.17v-5.616l-3.358-2.597-5.425.33-3.424.805-4.01-.804-4.964-.006-2.085 2.05-.24 2.376zm2.38.196l.19-1.895 1.663-1.634 3.96.005 3.197.643 2.732-.642 4.326-.264 2.678 2.07V95.217l-1.256 1.73-2.798.842-2.492-.444-3.023-.608-3.295.743-4.28-.31-1.11-2.4-.492-2.314z"/>
            <path fill="#19120A" d="M113.102 80.2l-.193-3.92-2.978-1.896-4.67 2.907 1.508 3.39M90.297 80.2l.193-3.92 2.976-1.896 4.67 2.907-1.507 3.39"/>
            <path fill="#4C371E" d="M114.718 74.384l-.822-3.1-12.59 1.247-11.977-1.18-1.19 2.6 2.157.434.948-.81 8.774.896-1.408 8.656-4.71-.452-1.584 2.213 9.287 1.428 8.014-1.533-2.084-2.108-3.634.89.08-8.68 8.168-1.028v.936"/>
        </g>
        <path opacity=".2" d="M101.363 101.663l.328-33.58h-5.633l-10.145 3.2 3.77 29.72"/>
    </g>
</svg>