<svg xmlns="http://www.w3.org/2000/svg" width="300" height="300" viewBox="0 0 300 300">
    <path fill="#D94A54" d="M11 135.038l8.508 47.187 39.986 42.996 25.524 28.93 52.748 24.253 52.748-25.104 44.24-8.51 20.42-45.938 33.18-35.735V133.34"/>
    <path fill="#CE4956" d="M56.09 153.75l-4.24 22.998 25.52 14.19 19.315-41.654-13.702-.55"/>
    <path fill="#CE4956" d="M13.308 147.84l60.96 69.753 3.102-26.655-25.52-14.19"/>
    <path fill="#AF4156" d="M74.267 217.593l-24.83-3.19-29.93-32.18"/>
    <path fill="#D84E62" d="M118.198 153.75l-9.07 48.505-34.86 15.338 3.102-26.655"/>
    <path fill="#A03C4F" d="M74.267 217.593l10.75 36.554-35.58-39.742"/>
    <path fill="#AA3D4D" d="M85.018 254.146l59.273-6.496-6.522 30.75"/>
    <path fill="#933746" d="M190.514 253.296l-46.223-5.646-6.522 30.75"/>
    <path fill="#B24051" d="M109.13 202.255L91.7 227.8l-6.682 26.347-10.75-36.554"/>
    <path fill="#C6475A" d="M91.7 227.8l-17.433-10.207 34.862-15.338"/>
    <path fill="#DD526D" d="M77.37 190.938l19.315-41.652 21.513 4.467"/>
    <path fill="#893444" d="M85.018 254.146l6.68-26.347 17.43-25.546 57.28-16.583v42.53l-39.13 29.09"/>
    <path fill="#C14D74" d="M166.41 225.533l53.876-48.785 5.672-28.345-38.565 28.345-20.982 8.924"/>
    <path fill="#C44759" d="M118.198 153.75l18.717-5.104 25.522-4.25 17.017 9.355-43.99 40.88-26.335 7.627"/>
    <path fill="#C14658" d="M220.286 176.748L202.14 228.2l-11.626 25.096-56.08-1.812 31.975-25.95"/>
    <path fill="#B7445A" d="M214.025 194.5l17.604 33.3-41.116 25.496"/>
    <path fill="#CC4C65" d="M190.514 253.296l44.24-8.508 20.42-45.94-3.404-54.452-20.14 83.405"/>
    <path fill="#C94F72" d="M231.63 227.8l-5.672-79.397-11.933 46.096"/>
    <path fill="none" d="M251.77 144.396l11.06 5.1 25.524-16.16v29.778l-33.18 35.733"/>
    <path fill="#CC4C65" d="M109.13 202.255l70.324-48.504 25.522-9.352 20.98 4.007-38.564 28.345-20.983 8.923"/>
    <path fill="#B7445A" d="M231.63 227.8l-5.672-79.397 25.812-4.007"/>
    <path fill="#DD5065" d="M262.83 148.778l-7.657 49.348 33.18-35.73v-29.06"/>
    <path fill="#AA3F54" d="M255.173 198.848l-3.403-54.45 11.06 5.1"/>
    <path fill="#B74253" d="M109.13 202.255l18.147 55.037-35.578-29.49"/>
    <path fill="#C14658" d="M91.7 227.8l-6.682 26.347 42.26 3.146"/>
    <path fill="#C14966" d="M109.13 202.255l57.28-16.583v39.86l-39.133 31.76"/>
    <path fill="#B24665" d="M187.393 176.748l-2.2 31.775 32.917-29.806 7.85-30.317"/>
    <path fill="#C14658" d="M74.267 217.593l-60.96-69.753 6.2 34.385"/>
    <path fill="#DD5065" d="M51.85 176.748l4.24-22.997-30.627-11.903-12.155 5.995"/>
    <g>
        <path fill="#BF9AD8" d="M11 135.038l2.308 12.802 12.155-5.995s11.06 4.338 13.612 5.995c2.553 1.657 17.016 5.91 17.016 5.91l24.675-5.103 21.27.85 16.165 4.255 18.716-5.104 25.523-4.25 17.015 9.354 25.52-9.355 20.98 4.008 25.814-4.008 11.06 5.102 15.312-7.655 10.21-8.507L11 135.038z"/>
        <path fill="#E5B4FF" d="M21.21 119.494s85.726-5.685 88.278-4.606c2.552 1.08 64.01 4.606 64.01 4.606l65.51-4.874 49.346 18.718-44.813 5.424-43.747-2.114-83.295 5.197-60.405-1.702L11 135.038l10.21-15.544z"/>
        <path fill="#E5B4FF" d="M126.5 121.043c-1.5-1.38-.835-9.09-.832-11.337.002-1.81-.074-3.694.416-5.41.37-1.298 2-2.926 1.903-4.22 5.53-1.77 3.045-9.603 8.032-12.263 2.79-1.488 3.98.722 4.38 3.205.43 2.662 1.31 4.167 2.27 6.6.933 2.354.126 5.412 2.716 6.814 1.382 3.102 1.38 5.45 1.695 8.805.157 1.662.804 2.91 1.404 4.46.43 1.115 1.4 2.81 1.513 3.97"/>
        <linearGradient id="a" gradientUnits="userSpaceOnUse" x1="575.125" y1="489.505" x2="577.812" y2="474.267" gradientTransform="translate(-437 -366)">
            <stop offset="0" stop-color="#E5B4FF"/>
            <stop offset="1" stop-color="#C29CDB"/>
        </linearGradient>
        <path fill="url(#a)" d="M129.83 122.043c-.01-1.973-.3-6.605 2.874-6.067.753-1.946 1.98-5.833 4.58-5.755.073 1.208.43 4.134 2.106 2.535 1.084-1.032-.6-4.236 1.655-4.424 1.926-.16 2.435 8.19 3.3 9.92.81 1.617 1.807 3.027 2.952 4.418"/>
        <path fill="#E5B4FF" d="M221.922 126.876c1.2-5.596-.36-11.388-.02-17.02.135-2.208.5-5.66 1.723-7.525 1.757-2.68 3.454-.515 4.852-1.48 1.748-1.202 2.157-9.76 2.806-11.943 1.352-4.56 1.98-9.28 3.336-13.813.84-2.815 2.63-10.404 6.216-10.724-.06.446.13 1.03.103 1.476 2.124 1.706 3.34-1.43 5.473-.188 1.705.994 1.983 4.894 2.388 6.546 1.325 5.42-.29 11.41 1.314 16.643 2.9-2.135 3.18 8.144 3.25 9.86.166 3.877 1.89 10.31.51 13.89.39-.142 1.104-.027 1.496-.21.764 2.738.336 5.843.07 8.633-.23 2.437-1.43 7.09-.967 8.7"/>
        <linearGradient id="b" gradientUnits="userSpaceOnUse" x1="678.194" y1="496.665" x2="678.194" y2="458.655" gradientTransform="translate(-437 -366)">
            <stop offset="0" stop-color="#E5B4FF"/>
            <stop offset="1" stop-color="#C29CDB"/>
        </linearGradient>
        <path fill="url(#b)" d="M227.61 126.876c2.306-4.37.415-12.936 6.315-15.513.367.594 1.54 1.144 1.896 1.664 3.803-2.49 2.954-22.296 10.374-20.22.957 2.654 1.324 4.786 1.313 7.682-.01 2.453-.892 6.43-.23 8.63.578 1.91 2.447 4.04 3.07 6.212.75 2.63 1.188 5.293 1.89 8.002.653 2.534 1.993 4.647 2.542 7.33"/>
        <g>
            <path fill="#E5B4FF" d="M30.5 122.667c-3.062-8.357 1.262-16.396-1.064-24.894-.68-2.49-4.596-27.76 5.89-23.183-1.23-13.21-3.226-27.722 4.507-40.26 5.743-9.304 21.656-19.11 37.084-12.408 8.213 3.567 9.99 10.225 11.184 16.27 5.197-5.127 9.384 2.287 10.287 5.475 1.735 6.12 2.217 12.457 3.82 18.624 1.213 4.677 1 8.47 5.154 12.4 4.96 4.696 4.255 11.677 5.286 17.19 1.938 10.387 4.478 20.65 5.365 31.11"/>
            <linearGradient id="c" gradientUnits="userSpaceOnUse" x1="350.695" y1="-190.809" x2="350.695" y2="-115.358" gradientTransform="matrix(1 0 0 -1 -281 -70)">
                <stop offset="0" stop-color="#E5B4FF"/>
                <stop offset="1" stop-color="#C29CDB"/>
            </linearGradient>
            <path fill="url(#c)" d="M45.853 119.855c-1.525-4.91-3.824-9.64-5.467-14.515-1.447-4.283-3.947-11.26-1.763-15.53 1.028-2.015 3.718-2.916 5.106-4.69 1.472-1.88.832-4.24.764-6.29-.268-7.862-.9-16.014 2.114-23.674 2.02-5.137 7.545-13.768 14.513-6.06 1.764-1.39 2.083-3.662 5.428-3.736 3.506-.078 3.98 2.545 4.803 4.498 2.218 5.25 2.195 10.648 4.88 15.906 1.22.023 2.506.05 3.72.08 7.24 7.655 4.54 18.617 7.798 27.13.576 1.508.764 3.888 2.453 5.078 1.407.99 3.28.65 4.768 1.52 3.58 2.1 3.73 8.4 4.402 11.357.757 3.326.933 6.62 2.255 9.88"/>
            <linearGradient id="d" gradientUnits="userSpaceOnUse" x1="365.265" y1="-197.442" x2="380.661" y2="-139.982" gradientTransform="matrix(1 0 0 -1 -281 -70)">
                <stop offset="0" stop-color="#E5B4FF"/>
                <stop offset="1" stop-color="#C29CDB"/>
            </linearGradient>
            <path fill="url(#d)" d="M62.95 121.732c-1.294-4.49-2.152-9.286-2.683-13.895-.237-2.056-.32-4.25-.142-6.328.187-2.205 1.696-4.12 1.93-6.264 1.348-.566 4.46-1.372 5.4-2.322 1.19-1.205.992-4.39 1.55-5.898 1.642-4.44 4.78-8.11 6.878-12.34 8.02-4.476 20.557-10.13 26.815-1.21 2.81 4.01 2.998 8.457 4.477 12.71 2.26 6.498 5.353 12.798 7.112 19.39 1.547 5.795 2.08 11.583 2.346 17.458"/>
        </g>
    </g>
    <g>
        <path fill="#73E5D8" d="M172.418 106.708l7.473 4.044 7.7-4.044"/>
        <path fill="#56B7B2" d="M172.418 106.708l6.915 7.087.558-3.043"/>
        <path fill="#5BC9C9" d="M172.418 106.708l9.035-1.978 6.135 1.978"/>
        <path fill="#65D6D0" d="M179.89 110.752l12.16-2.022-4.462-2.022"/>
        <path fill="#5FCECB" d="M179.333 113.795l8.255-2.35 4.462-2.715-12.16 2.022"/>
        <path opacity=".08" d="M181.55 120.458l-8.073.77 6.86 1.648 9.664-1.21"/>
    </g>
    <g>
        <path fill="#6AE8EF" d="M195.823 109.677l22.33-6.886 23 6.888"/>
        <path fill="#69E2DE" d="M195.823 109.677l20.665-12.07 1.666 5.184"/>
        <path fill="#62D3D0" d="M195.823 109.677l27 3.37 18.33-3.37"/>
        <path fill="#6AE5E1" d="M218.154 102.79l36.334 3.444-13.334 3.443"/>
        <path fill="#78FFF8" d="M216.49 97.608l24.664 4 13.334 4.626-36.334-3.443"/>
        <path opacity=".08" d="M227.854 130.232L200.5 131.72l21.99 2.53h24.703"/>
    </g>
    <g>
        <path fill="#6AD8CD" d="M107.24 94.43l-22.306-1.31-10.292 3.313 16.3 5.94 22.527 1.782v-5.043"/>
        <path fill="#63C9BF" d="M139.474 101.69l-26.047-2.536v5.043"/>
        <path fill="#70EDE6" d="M139.474 101.69l11.323-4.59-21.138.55"/>
        <path fill="#73F4ED" d="M150.797 97.1l-33.972-4.335L89.27 97.65h40.39"/>
        <path fill="#77F7ED" d="M74.6 96.475l32.6-2.004-22.308-1.306"/>
        <path fill="#6CE0D7" d="M90.9 102.416l22.527-3.262-38.827-2.68"/>
        <path fill="#6FDDD0" d="M139.474 101.69l-9.815-4.04h-18.234l2 1.504"/>
        <path opacity=".08" d="M119.146 131.217l-32.724 3.095 28.13 2.164 26.33-3.25"/>
    </g>
    <g>
        <path fill="#5CC6C3" d="M54.446 59.626l19.7-3.03 9.087 7.67L68.84 78.023l-19.894 4.125V70.47"/>
        <path fill="#64D8D5" d="M25.946 76.344l23-5.874v11.677"/>
        <path fill="#66DDDA" d="M25.946 76.344l-10-10.63 18.667 1.273"/>
        <path fill="#6EEDE9" d="M15.946 65.713l30-10.04L70.28 66.988H34.612"/>
        <path fill="#6FF7F7" d="M83.233 64.267l-28.787-4.64 19.7-3.03"/>
        <path fill="#6AE5E1" d="M68.84 78.022L48.945 70.47l34.287-6.203"/>
        <path fill="#66D3CB" d="M25.946 76.344l8.667-9.357h16.1l-1.767 3.483"/>
        <path opacity=".08" d="M43.738 129.055l-17.83 3.09 23.707 3.7 33.618-4.36-31.353-3.553"/>
    </g>
    <g>
        <path fill="#73E5D8" d="M215.384 67.61l-12.9 23.277-21.858-2.06-12.68-5.106 9.847-7.975 14.02-8.754"/>
        <path fill="#EDB56B" d="M215.384 67.61l-16.1 15.173-21.492-7.038"/>
        <path fill="#E8AD6D" d="M215.384 67.61l-12.9 23.277-3.2-8.104"/>
        <path fill="#FFC373" d="M215.384 67.61l-23.572-.618-14.02 8.753"/>
        <path fill="#FFBB71" d="M199.283 82.784l-31.34.938 9.85-7.976"/>
        <path fill="#E0AA68" d="M202.482 90.887l-21.857-2.06-12.68-5.106 31.337-.937"/>
        <path fill="#F4B16E" d="M184.803 71.37l-12.367-5.773.837 13.81"/>
        <path fill="#E5A46A" d="M172.435 65.596l-13.8 12.618 9.31 5.507 5.327-4.313"/>
        <path fill="#FFBB71" d="M172.435 65.596l19.377 1.396-7.01 4.376"/>
        <path fill="#E0AE65" d="M151.146 85.227l1.623-4.103 5.52 3.5-3.03 1.707"/>
        <path fill="#FFC373" d="M152.77 81.124l4.914 1.023.605 2.475"/>
        <path fill="#E0AE65" d="M144.623 79.04l2.588-3.843 2.636 3.608-2.266 1.02"/>
        <path fill="#FFC373" d="M147.21 75.197l3.747.712-1.11 2.894"/>
        <linearGradient id="e" gradientUnits="userSpaceOnUse" x1="371.807" y1="704.973" x2="374.058" y2="704.973" gradientTransform="translate(-189 -626)">
            <stop offset=".043" stop-color="#555290"/>
            <stop offset="1" stop-color="#555290"/>
        </linearGradient>
        <path fill="url(#e)" d="M185.057 79.98s-.17.484-1.054.484c-.887 0-1.107-.266-1.164-.39-.058-.125 0-.313 0-.313s-.052-.154-.026-.295c.025-.14-.006-.39-.006-.39V77.98s.4-.514 1.047-.5.87.298.86.517c-.01.218.09.683.09.683l.163.674.09.627z"/>
        <path fill="#F9E0AA" d="M184.38 78.106l-.033-1.293h-1.39l.112 1.293h1.31z"/>
        <linearGradient id="f" gradientUnits="userSpaceOnUse" x1="371.708" y1="706.072" x2="374.059" y2="706.072" gradientTransform="translate(-189 -626)">
            <stop offset="0" stop-color="#D5CACF"/>
            <stop offset="1" stop-color="#E0EFEF"/>
        </linearGradient>
        <path fill="url(#f)" d="M185.01 79.676s-.036.172-.283.235c-.246.06-1.335.313-2.01-.15 0 .315-.068.38.167.49.234.11.447.193 1.06.216.617.022 1.147-.263 1.113-.484l-.046-.306z"/>
        <path fill="none" d="M183.054 78.332s-.157.018-.368-.348m1.776.102s.234.098.205-.233"/>
        <linearGradient id="g" gradientUnits="userSpaceOnUse" x1="-1047.088" y1="705.036" x2="-1044.836" y2="705.036" gradientTransform="matrix(-1 0 0 1 -867.216 -626)">
            <stop offset=".043" stop-color="#555290"/>
            <stop offset="1" stop-color="#555290"/>
        </linearGradient>
        <path fill="url(#g)" d="M177.62 80.043s.17.484 1.057.484c.886 0 1.107-.265 1.163-.39.053-.125 0-.313 0-.313s.05-.156.02-.296c-.02-.14.01-.39.01-.39v-1.094s-.4-.517-1.048-.5c-.646.017-.87.296-.86.516.01.22-.09.68-.09.68l-.163.678-.09.624z"/>
        <path fill="#F9E0AA" d="M178.3 78.168l.03-1.294h1.393l-.112 1.294h-1.31z"/>
        <linearGradient id="h" gradientUnits="userSpaceOnUse" x1="-1047.188" y1="706.133" x2="-1044.836" y2="706.133" gradientTransform="matrix(-1 0 0 1 -867.216 -626)">
            <stop offset="0" stop-color="#D5CACF"/>
            <stop offset="1" stop-color="#E0EFEF"/>
        </linearGradient>
        <path fill="url(#h)" d="M177.667 79.736s.04.173.285.236c.246.064 1.336.315 2.01-.147 0 .313.07.38-.164.49s-.446.19-1.06.213c-.618.024-1.147-.264-1.116-.484.04-.22.05-.304.05-.305l-.003-.003h-.003z"/>
        <path fill="none" d="M179.624 78.394s.158.017.37-.35m-1.776.103s-.232.098-.205-.234"/>
        <path fill="#85A4AF" d="M184.29 62.415l.394 14.687h-1.953l-1.5-11.27h.3l-1.5 11.27h-1.95l.39-14.686"/>
        <path fill="#DDEDE4" d="M178.077 55.182s.32 5.73.36 7.08c.032 1.348 5.78 1.206 5.832 0l.286-6.502-1.737-4.236h-2.823l-1.922 3.66v-.002h.002z"/>
        <path fill="#F9E0AA" stroke="#E5CFA1" stroke-width=".1" stroke-miterlimit="10" d="M182.493 50.527v1.032s-.412.8-.963.8-1.16-.648-1.16-.648v-1.38"/>
        <path fill="#EAD3A4" d="M181.534 50.49v1.834c.55 0 .965-.8.965-.8V50.49"/>
        <path fill="#B79E0B" d="M183.903 44.648s.614-.494.688-.684c.07-.19.796 1.255.49 1.747-.303.495.57 0 .57 0s-1.414 3.808-1.976 3.95c-.56.143-.72.358-.72.358m-3.87-5.37s-.617-.494-.69-.684c-.07-.19-.793 1.255-.49 1.747.306.495-.565 0-.565 0s1.413 3.808 1.974 3.95c.56.143.72.358.72.358"/>
        <path fill="#F9E0AA" stroke="#E5CFA1" stroke-width=".1" stroke-miterlimit="10" d="M184.155 47.003c.234-.305.474.114.433.644-.04.533-.43.913-.784.987-1.178 2.393-2.27 2.432-2.27 2.432s-1.1-.04-2.272-2.432c-.354-.075-.745-.455-.784-.987-.04-.53.194-.95.43-.644 0 0-.2-3.04 2.494-3.04 2.692.002 2.753 3.04 2.753 3.04z"/>
        <path opacity=".8" fill="#F2DAB1" d="M184.215 47.003c.235-.305.472.114.432.644-.04.533-.432.913-.784.987-1.177 2.393-2.27 2.432-2.27 2.432l-.137-7.103c2.697.002 2.76 3.04 2.76 3.04z"/>
        <path fill="#B79E0B" d="M179.004 47.916s.53-1.444.417-1.86c2.356 0 3.495-1.065 3.495-1.065s.836.227.53 1.46c.306.134.38 1.236.38 1.236s.104-.8.524-.78c.005-1.46.193-2.41-.566-2.94-.76-.533-3.416-.38-3.416-.38s-.724-.114-.724-.456c0-.343-1.526 1.44-1.183 3.57.274.2.696.713.54 1.214l.004.002z"/>
        <path fill="#85A4AF" d="M180.73 47.273c.016.146-.13.282-.328.305-.195.022-.37-.078-.387-.224-.02-.146.698-.227.714-.08zm2.12.08c-.017.148-.188.248-.387.226-.198-.024-.345-.16-.328-.306s.733-.066.716.08z"/>
        <ellipse fill="#85A4AF" cx="171.739" cy="47.388" rx=".36" ry=".266"/>
        <path fill="#DDEDE4" d="M182.594 51.523s3.19.36 3.36.836c.172.474 1.082 2.58.912 2.525-.174-.057-2.582.823-2.56.402m-4.035-3.764s-3.186.36-3.355.836c-.172.474-1.082 2.58-.912 2.525.172-.057 2.58.823 2.56.402"/>
        <path fill="#EAD3A4" d="M186.31 54.96s.745 3.246 0 5.426c-.746 2.18-1.564 3.343-1.564 3.343l-.3-1.237s1.27-5.116.313-7.064l1.552-.47z"/>
        <path fill="#F9E0AA" d="M176.454 54.96s-.746 3.246 0 5.426c.748 2.18 1.564 3.343 1.564 3.343l.3-1.237s-1.268-5.116-.312-7.064l-1.557-.47h.004z"/>
        <path fill="none" stroke="#779299" stroke-miterlimit="10" d="M178.53 64.33l.27-1.355m5.098-.117l.267 1.356"/>
        <ellipse transform="rotate(38 178.275 63.383)" fill="#F9E0AA" cx="178.285" cy="63.385" rx=".901" ry=".798"/>
        <ellipse transform="rotate(142 184.378 63.27)" fill="#EAD3A4" cx="184.378" cy="63.267" rx=".885" ry=".786"/>
        <circle fill="#F9E0AA" cx="178.454" cy="62.492" r=".209"/>
        <circle fill="#EAD3A4" cx="184.372" cy="62.492" r=".209"/>
    </g>
</svg>