<svg xmlns="http://www.w3.org/2000/svg" width="300" height="300" viewBox="0 0 300 300">
    <path fill="#D94A54" d="M11 135.038l8.508 47.187 39.986 42.996 25.524 28.93 52.748 24.253 52.748-25.104 44.24-8.51 20.42-45.938 33.18-35.735V133.34"/>
    <path fill="#CE4956" d="M56.09 153.75l-4.24 22.998 25.52 14.19 19.315-41.654-13.702-.55"/>
    <path fill="#CE4956" d="M13.308 147.84l60.96 69.753 3.102-26.655-25.52-14.19"/>
    <path fill="#AF4156" d="M74.267 217.593l-24.83-3.19-29.93-32.18"/>
    <path fill="#D84E62" d="M118.198 153.75l-9.07 48.505-34.86 15.338 3.102-26.655"/>
    <path fill="#A03C4F" d="M74.267 217.593l10.75 36.554-35.58-39.742"/>
    <path fill="#AA3D4D" d="M85.018 254.146l59.273-6.496-6.522 30.75"/>
    <path fill="#933746" d="M190.514 253.296l-46.223-5.646-6.522 30.75"/>
    <path fill="#B24051" d="M109.13 202.255L91.7 227.8l-6.682 26.347-10.75-36.554"/>
    <path fill="#C6475A" d="M91.7 227.8l-17.433-10.207 34.862-15.338"/>
    <path fill="#DD526D" d="M77.37 190.938l19.315-41.652 21.513 4.467"/>
    <path fill="#893444" d="M85.018 254.146l6.68-26.347 17.43-25.546 57.28-16.583v42.53l-39.13 29.09"/>
    <path fill="#C14D74" d="M166.41 225.533l53.876-48.785 5.672-28.345-38.565 28.345-20.982 8.924"/>
    <path fill="#C44759" d="M118.198 153.75l18.717-5.104 25.522-4.25 17.017 9.355-43.99 40.88-26.335 7.627"/>
    <path fill="#C14658" d="M220.286 176.748L202.14 228.2l-11.626 25.096-56.08-1.812 31.975-25.95"/>
    <path fill="#B7445A" d="M214.025 194.5l17.604 33.3-41.116 25.496"/>
    <path fill="#CC4C65" d="M190.514 253.296l44.24-8.508 20.42-45.94-3.404-54.452-20.14 83.405"/>
    <path fill="#C94F72" d="M231.63 227.8l-5.672-79.397-11.933 46.096"/>
    <path fill="none" d="M251.77 144.396l11.06 5.1 25.524-16.16v29.778l-33.18 35.733"/>
    <path fill="#CC4C65" d="M109.13 202.255l70.324-48.504 25.522-9.352 20.98 4.007-38.564 28.345-20.983 8.923"/>
    <path fill="#B7445A" d="M231.63 227.8l-5.672-79.397 25.812-4.007"/>
    <path fill="#DD5065" d="M262.83 148.778l-7.657 49.348 33.18-35.73v-29.06"/>
    <path fill="#AA3F54" d="M255.173 198.848l-3.403-54.45 11.06 5.1"/>
    <path fill="#B74253" d="M109.13 202.255l18.147 55.037-35.578-29.49"/>
    <path fill="#C14658" d="M91.7 227.8l-6.682 26.347 42.26 3.146"/>
    <path fill="#C14966" d="M109.13 202.255l57.28-16.583v39.86l-39.133 31.76"/>
    <path fill="#B24665" d="M187.393 176.748l-2.2 31.775 32.917-29.806 7.85-30.317"/>
    <path fill="#C14658" d="M74.267 217.593l-60.96-69.753 6.2 34.385"/>
    <path fill="#DD5065" d="M51.85 176.748l4.24-22.997-30.627-11.903-12.155 5.995"/>
    <path fill="#D86B59" d="M11 135.038l2.308 12.802 12.155-5.995s11.06 4.338 13.612 5.995c2.553 1.657 17.016 5.91 17.016 5.91l24.675-5.103 21.27.85 16.165 4.255 18.716-5.104 25.523-4.25 17.015 9.354 25.52-9.355 20.98 4.008 25.814-4.008 11.06 5.102 15.312-7.655 10.21-8.507L11 135.038z"/>
    <path fill="#FF8363" d="M21.21 119.494s85.726-5.685 88.278-4.606c2.552 1.08 64.01 4.606 64.01 4.606l65.51-4.874 49.346 18.718-44.813 5.424-43.747-2.114-83.295 5.197-60.405-1.702L11 135.038l10.21-15.544z"/>
    <path fill="#77F7ED" d="M228.225 88.8l4.393-3.266 7.97-3.304 1.192.224 7.374 5.027-.6.44-8.438 2.965-7.273-.99"/>
    <path fill="#6AE8EF" d="M249.503 87.588l-8.558-2.622-7.666 5.03"/>
    <path fill="#69E2DE" d="M249.503 87.588l-8.387-5.576-.17 2.954"/>
    <path fill="#62D3D0" d="M249.503 87.588l-9.387 3.297-6.837-.89"/>
    <path fill="#6AE5E1" d="M240.945 84.966l-12.72 3.835 5.054 1.197"/>
    <path fill="#78FFF8" d="M241.116 82.012l-8.498 3.522-4.394 3.267 12.72-3.833"/>
    <path fill="#A5203F" d="M36.537 124.262l49.035-98.987 48.012 62.982 24.518-43.927 20.688 50.567 41.116-37.808 17.117 67.17-57.57-2.547-39.23 2.547-50.43 3.97"/>
    <path fill="#8C1C3A" d="M158.102 44.33l-11.477 79.517-13.04-35.59M85.572 25.275l4.22 102.956-53.255-3.966M178.79 94.897l11.724 27.308 29.394-65.116"/>
    <path fill="#73F4ED" d="M114.25 86.02l20.012-2.552 5.873 1.49 13.194-1.25 5.752 1.875-1.12.865-6.888 2.51-2.894.398-10.625.8h-3.18l-13.043-1.323-6.39-2.148"/>
    <path fill="#6AD8CD" d="M140.11 84.483l13.61-.797 6.278 2.02-9.943 3.625-13.746 1.09v-3.08"/>
    <path fill="#63C9BF" d="M120.442 88.914l15.893-1.547v3.076"/>
    <path fill="#70EDE6" d="M120.442 88.914l-6.908-2.8 12.898.335"/>
    <path fill="#73F4ED" d="M113.534 86.113l20.728-2.645 16.812 2.98h-24.642"/>
    <path fill="#77F7ED" d="M160.025 85.732l-19.89-1.223 13.61-.8"/>
    <path fill="#6CE0D7" d="M150.08 89.356l-13.745-1.99 23.69-1.634"/>
    <path fill="#6FDDD0" d="M120.442 88.914l5.99-2.465h11.123l-1.22.916"/>
    <g>
        <path opacity=".2" d="M190.945 132.77l-79.6 5.897 14.088-8.714-56.1 6.047 5.507-7.1-61.532 6.124 7.917-4.803 80.902-5.69 38.338 1.335"/>
        <path fill="#CC2545" d="M252.337 130.22l-56.524-63.544-55.348 40.43-28.262-28.198-23.85 32.462L40.96 87.1l-19.733 43.12 66.365-1.634 45.22 1.635 58.135 2.55"/>
        <path fill="#D82B5C" d="M125.433 129.953l15.032-22.847-28.262-28.198m83.61-12.232l-4.867 66.093 61.393-2.55m-177.5-1.32l13.514-17.53L40.958 87.1"/>
    </g>
    <g>
        <circle cx="77.37" cy="124.835" r="1.684"/>
        <path d="M77.37 131.377c-.276 0-.5-.224-.5-.5v-5.014c0-.276.224-.5.5-.5s.5.224.5.5v5.014c0 .277-.224.5-.5.5z"/>
        <path d="M76.252 137.824c-.028 0-.057-.002-.086-.007-.272-.047-.455-.306-.407-.578l1.115-6.45c.047-.27.31-.454.578-.407.272.047.455.306.407.578l-1.117 6.448c-.04.242-.253.413-.49.414v.002z"/>
        <path d="M78.52 137.824c-.238 0-.45-.17-.492-.412l-1.15-6.447c-.048-.272.132-.532.404-.58.273-.047.532.133.58.404l1.15 6.444c.048.272-.132.532-.404.58-.03.006-.06.008-.088.01z"/>
        <path d="M77.202 131.63c-.092 0-.186-.025-.27-.08l-1.515-.968c-.22-.14-.294-.423-.174-.653l1.683-3.226c.128-.245.43-.34.675-.212.248.128.34.43.215.675l-1.47 2.816 1.128.722c.234.15.302.458.153.69-.095.15-.256.232-.42.232l-.004.003z"/>
        <circle fill="#45F8FF" cx="78.252" cy="124.835" r=".307"/>
    </g>
    <path fill="#77F7ED" d="M182.175 100.726l11.157 2.607 6.467 3.232-8.855 3.04-6.506 1.72-12.397-2.227v-.713l9.1-7.66"/>
    <g>
        <path fill="#77F7ED" d="M58.196 54.695l7.048-7.95 1.435.147 7.084 2.22 4.922 3.077-.53.87-3.282 1.635-2.244.867-4.883 1.734-9.248-2.23"/>
        <path fill="#6AE8EF" d="M57.977 54.942l8.08-4.813 8.32 4.81"/>
        <path fill="#69E2DE" d="M57.977 54.942l7.477-8.434.603 3.62"/>
        <path fill="#62D3D0" d="M57.977 54.942l9.77 2.354 6.63-2.354"/>
        <path fill="#6AE5E1" d="M66.057 50.13l13.146 2.406-4.825 2.406"/>
        <path fill="#78FFF8" d="M65.454 46.508l8.924 2.795 4.825 3.233-13.146-2.407"/>
    </g>
    <g>
        <path fill="#73F4ED" d="M114.752 60.77l5.54-2.328 10.39-1.968 8.86 5.713-1.055.6-10.193 1.485L121 62.555l-3.562-.805"/>
        <path fill="#6AE8EF" d="M140.084 62.555l-9.75-3.51-10.042 3.51"/>
        <path fill="#69E2DE" d="M140.084 62.555l-9.022-6.153-.728 2.642"/>
        <path fill="#62D3D0" d="M140.084 62.555l-11.79 1.717-8.002-1.717"/>
        <path fill="#6AE5E1" d="M130.334 59.044L114.47 60.8l5.822 1.755"/>
        <path fill="#78FFF8" d="M131.062 56.402l-10.77 2.04-5.823 2.358 15.863-1.756"/>
    </g>
    <g>
        <path fill="#6AE8EF" d="M171.346 108.972l10.83-4.813 11.156 4.81"/>
        <path fill="#69E2DE" d="M171.346 108.972l10.02-8.435.81 3.622"/>
        <path fill="#62D3D0" d="M171.346 108.972l13.094 2.354 8.893-2.354"/>
        <path fill="#6AE5E1" d="M182.175 104.16l17.624 2.405-6.47 2.407"/>
        <path fill="#78FFF8" d="M181.367 100.537l11.965 2.796 6.467 3.232-17.626-2.406"/>
    </g>
    <g>
        <path fill="#77F7ED" d="M12.643 99.724l12.17 4.435 3.378.486 9.79.774h8.27l17.833-1.563 5.48-2.11 4.96-1.257-7.703-.985L47.5 96.7l-8.667 1.42-18.068-1.373"/>
        <path fill="#6AD8CD" d="M39.22 97.793L20.558 96.7l-8.61 2.77 13.636 4.97 18.85 1.49v-4.218"/>
        <path fill="#63C9BF" d="M66.19 103.87l-21.793-2.123v4.22"/>
        <path fill="#70EDE6" d="M66.19 103.87l9.474-3.842-17.687.46"/>
        <path fill="#73F4ED" d="M75.664 100.028L47.24 96.4l-23.055 4.09h33.792"/>
        <path fill="#77F7ED" d="M11.91 99.505l27.276-1.676-18.664-1.097"/>
        <path fill="#6CE0D7" d="M25.548 104.476l18.85-2.73-32.487-2.24"/>
        <path fill="#6FDDD0" d="M66.19 103.87l-8.213-3.38H42.724l1.673 1.257"/>
    </g>
</svg>