<svg xmlns="http://www.w3.org/2000/svg" viewBox="0 0 1000 694.383"><path fill="#B9D6E0" d="M0 .383h1000v694H0z"/><path fill="#836568" d="M985.29 596.646l-42.22-40.705-61.6-42.05-95.647 4.59-97.298-6.107L665 536.885l-22.734 8.185-54.963 74.877 59.13 36.696 43.57 2.62 300.81 15.62 16.75-68.983"/><path fill="#70575B" d="M688.793 512.146l54.287 23.237H807l65.073 14.758-136.493 11.485-32.467-3.105-60.806-13.45L665 536.885v-7.826"/><path fill="#836568" d="M664.918 529.06l49.387 7.825-38.805-10.21-.912-4.45"/><path fill="#70575B" d="M626.62 566.383l62.99 15.857L706 633.596l-129-1.213"/><path fill="#836568" d="M617.818 578.09l-3.12 4.15 63.796 14.01 17.652 37.253 5.38-.12-18.465-40.11"/><circle fill="#5B484C" cx="734" cy="578.434" r="8.333"/><path fill="#70575B" d="M734 570.1c-.34 0-.672.026-1 .065 4.13.495 7.334 4.005 7.334 8.27 0 4.262-3.204 7.77-7.334 8.267.328.04.66.065 1 .065 4.603 0 8.334-3.73 8.334-8.333s-3.73-8.334-8.334-8.334z"/><circle fill="#5B484C" cx="756" cy="578.434" r="8.333"/><path fill="#70575B" d="M756 570.1c-.34 0-.672.026-1 .065 4.13.495 7.334 4.005 7.334 8.27 0 4.262-3.204 7.77-7.334 8.267.328.04.66.065 1 .065 4.603 0 8.334-3.73 8.334-8.333s-3.73-8.334-8.334-8.334z"/><circle fill="#5B484C" cx="778" cy="578.434" r="8.333"/><path fill="#70575B" d="M778 570.1c-.34 0-.672.026-1 .065 4.13.495 7.334 4.005 7.334 8.27 0 4.262-3.204 7.77-7.334 8.267.328.04.66.065 1 .065 4.603 0 8.334-3.73 8.334-8.333s-3.73-8.334-8.334-8.334z"/>
  <g><circle fill="#5B484C" cx="801" cy="578.434" r="8.333"/><path fill="#70575B" d="M801 570.1c-.34 0-.672.026-1 .065 4.13.495 7.334 4.005 7.334 8.27 0 4.262-3.204 7.77-7.334 8.267.328.04.66.065 1 .065 4.603 0 8.334-3.73 8.334-8.333s-3.73-8.334-8.334-8.334z"/></g><path fill="#836568" d="M851.567 525.868l-4.834-11.578 6.042-13.702 8.39-8.674 43.353 7.347 4.54 16.28-7.073 16.843h-33.422"/><path fill="#70575B" d="M904.518 499.26l-43.354-7.346-3.636 3.76 38.207 6.474 4.008 14.368-6.243 14.867-24.937 1h33.422l7.074-16.844"/><path fill="#AB6F8B" d="M845 529.383h-44l-28-8h44"/>
  <g><path fill="#4F3F43" d="M862.5 493.633l3.583-1 30.583 5.168-2.25 1.418"/><path
    fill="#D6F9FF"
    d="M892.144 497.882c-2.027-17.69-8.62-34.453-23.155-50.035-30.798-33.018-84.303-48.544-139.14-54.042-76.494-7.67-155.167-1.85-232.114-1.66-67.436.166-134.455-3.967-201.797-5.31-43.462-.867-88.956-.558-131.155 7.537-12.176 2.336-34.01 6.35-36.738 16.752-2.7 10.305 16.174 11.368 26.9 12.266 64.525 5.398 131.535 2.807 196.376 3.273 127.193.914 257.61-2.21 382.482 16.902-65.32-.757-130.605-.658-195.813-2.26-53.15-1.307-106.69-1.22-159.792-3.84-56.604-2.794-116.2-6.43-172.852-2.495-16.675 1.158-38.963 7.086-49.82 16.006 4.056 2.986 9.34 5.14 15.64 4.61 42.804 10.4 91.26 8.39 135.94 8.225 51.088-.188 102.127-.575 153.217-.292 90.512.5 181.09.484 271.6.718 26.63.07 52.228-.417 78.706 1.542 17.81 1.318 47.638 2.3 56.116 15.077 3.28 4.944 4.854 10.097 7.067 14.762l18.33 2.265z"/>
    <g fill="#BFDCE0"><path
      d="M146.04 418.323c2.637-10.063 23.76-13.946 35.54-16.207 40.826-7.83 84.838-8.13 126.884-7.29 65.15 1.298 129.986 5.296 195.226 5.135 74.442-.183 150.553-5.81 224.557 1.608 53.052 5.32 104.814 20.34 134.608 52.282 12.596 13.503 19.015 27.926 21.628 43.085l7.66.947c-2.026-17.69-8.62-34.453-23.154-50.035-30.798-33.018-84.303-48.544-139.14-54.042-76.494-7.67-155.167-1.85-232.114-1.66-67.436.166-134.455-3.967-201.797-5.31-43.462-.867-88.956-.558-131.155 7.537-12.176 2.336-34.01 6.35-36.738 16.752-2.062 7.865 8.444 10.345 18.304 11.478-.592-1.206-.747-2.616-.31-4.28z"/><path
      d="M220.824 441.392c54.808-3.806 112.462-.29 167.223 2.414 51.372 2.536 103.17 2.45 154.59 3.714 63.084 1.55 126.243-4.95 189.437-4.218-17.112-2.62-34.335 1.612-51.64-.216-47.51-.35-94.996-.615-142.44-1.78-53.15-1.307-106.69-1.22-159.793-3.84-30.41-1.5-61.68-3.234-92.896-3.917-13.69.04-27.393.02-41.064-.17-13.067.213-26.056.7-38.89 1.59-16.675 1.16-38.963 7.087-49.82 16.007 4.056 2.986 9.34 5.14 15.64 4.61.793.193 1.59.374 2.388.558 10.803-8.22 31.595-13.665 47.266-14.753z"/></g>
  </g>
  <g><path fill="#836568" d="M68.174 595.742L143 570.91v9.436l81.306-27.637 9.3-8.09 53.05-10.044 8.607 6.807h63.31l-6.696 23.863-.925 8.533-19.773 6.583 27.394 4.765-10.48 48.255H165.596"/><path
    fill="#70575B"
    d="M356.163 550.14l-61.417 17.398 30.71-4.718-30.71 17.3 34.296 14.55 6.668 39.713h12.384l10.48-48.74-27.395-5.157 19.772-6.607.925-8.507M261.973 564.184l-18.184 4.14-65.61 14.935 43.913-.342-3.687-2.706 21.592-3.8 7.667-1.352 42.66-7.514-38.766 3.046M336 546.05l-32.667 10.666L336 550.14"/>
    <g><path fill="#604C50" d="M178.18 618.547l35.262 1.52 11.76 13.316H188.05"/><path fill="#867791" d="M-.03 567.892l37.157-6.267 27.606 9.738 3.544 6.02h18.08l24.38 5.998 4.955 5.122 16.984 3.88h18.456l10.558 6.313 4.247 11.767 12.738 3.92h16.44l14.698 5.354 7.784 8.107 9.907 5.54H-.006"/><path
      fill="#756A7F"
      d="M30.733 568.725l3.544 7.658h18.08l24.38 7.763 4.955 6.415 16.984 4.823h18.456l10.558 8.292 4.247 15.388 12.738 5.32h16.44l14.698 6.678 1.753 2.323h49.938l-9.907-5.54-7.784-8.107-14.7-5.353h-16.438l-12.738-3.92-4.247-11.768-10.558-6.312h-18.456l-16.984-3.88-4.954-5.122-24.38-5.997h-18.08l-3.545-6.02-27.606-9.738-16.12 2.72"/><path fill="#6E6377" d="M-.006 633.37L0 590.36l14-6.977h18l18 8 14 6.125 18 10.875h22l19-.006 14 12.006h12l35 13"/><path fill="#605868" d="M54 595.114l18 15.27h22l19 .067 14 16.933h12l11.582 5.998 33.418.003-35-13h-12l-14-12.006-19 .006H82l-18-10.875-14-6.125-7.505-3.336"/></g>
  </g><path fill="#83AE79" d="M0 633.383h1000v61H0z"/>
  <g><path fill="#DBB286" d="M438 533.824v-9.44h-2v-4h1.662l.056-8.878-1.718-.568v-5.705l56.82-11.02-.667 32.667"/><path fill="#F3D9B7" d="M436 510.938l56.624-10.172.004-6.552L436 505.234"/><path fill="#EDCDA3" d="M436 524.89l56.08-10.052.102-5.573L436 519.975"/><path fill="#CA9E76" d="M445 510.594v5.36l8-1.19v-5.36M476 504.638v5.956l9-1.458v-6.285"/><path fill="#C1AB95" d="M437.413 511.377l-1.964-.44 57.01-11.064.164.893M437.662 524.383h-1.787l56.142-9.798.07.32"/><path fill="#D9AE80" d="M532.802 514.634l-40.34-14.76.222-5.66 40.28 15.19"/><path fill="#C49770" d="M492.46 500.728l-.224 9.233 39.53 12.264.155-7.46"/><path fill="#B98C69" d="M491.938 514.838l.035-5.573L534 522.905v4.963"/><path fill="#BF9773" d="M492.46 499.873l-.007.855 39.172 14.036 1.177-.13"/><path fill="#A97C5F" d="M505 512.21l-6-2.202v-5.37l6 2.524M518 516.38l-7-2.524v-5.048l7 2.524M529 519.955l-8-2.525v-5.05l8 2.526"/><path fill="#A0775C" d="M491.813 515.284l.294-.478L534 527.868l-2-.183"/><path fill="#B88B69" d="M491.77 526.88l.043-11.596 40.187 12.4v7.926"/><path fill="#553539" d="M507 526.676l-4-1.19v-5.362l4 1.19M514 529.06l-4-1.192v-5.36l4 1.19M521 531.44l-3-1.19v-5.36l3 1.19"/><path
    fill="#DEB688"
    d="M273.666 668.383l9.828-17.942 9.084-1.27 6.303-12.787h9.53l5.958-11.967 11.515-1.26 5.956-12.773h12.904l6.553-15H364.4l6.354-15h11.515l4.764-15.14 13.104-2.31 5.56-13.264 12.31-2.066 5.16-12.747 80.61-10.742 49.635 17.025 11.117 14.243H567v4.648l10.887 8.538 7.113 1.588v5.362l10.016 7.743 6.597.398 6.078 13.104 8.402 1.985 4.794 8.34 12.325 4.764 5.568 13.104 9.535 1.192 11.12 13.897 8.34 1.59 9.53 11.912 13.5 5.035 10.722 9.803H551.427"/><path
    fill="#C89B73"
    d="M503.777 524.087l49.636 17.038 11.117 14.258h3.574l.298 4.855 10.185 8.434 6.413 1.484v5.362l10.016 7.743 6.597.398 6.078 13.104 8.97 2.977 4.226 7.346 12.325 4.765 5.568 13.104 9.535 1.192 11.12 13.897 8.34 1.59 9.53 11.912 13.5 5.035 12.31 9.803h-154.07"/><path fill="#E9C79F" d="M435.624 533.602L327.47 668.382h58.968l101.158-141.498"/><path fill="#E3BE93" d="M440.938 534.34L335.413 667.382h41.495l101.058-137.848"/><path fill="#DEB88D" d="M512.36 527.468l143.5 140.915h27.2L550.747 540.675"/><path fill="#C59770" d="M522.142 532.953l26.767 8.852 129.584 126.578h-16.876"/><path
    fill="#986B53"
    d="M621.19 668.635l-7.456-18.024-6.318-1.83-6.335-13.824-9.15-1.663-4.627-13.346-7.88-1.544-5.194-15.04-5.71-1.278-6.373-14.357-8.933-1.49-6.55-13.47-7.745-.825-4.766-14.295-7.148-1.19-7.148-16.53-4.02-.892-3.477-11.54 142.906 141.237"/></g>
  <g><path fill="#867791" d="M672.473 633.596l52.55-11.45 10.53-13.396 12.026-9.367H767l22.577 2.722 41.998-23.722H842l33.073 9.326 25.5-21.327H950l15.068 8.112L1000 558.52v74.913"/>
    <g fill="#756A7F"><path d="M905.06 570.1l3.08-3.717h-7.568l-1.525 1.276M806.547 592.52l4.794.753 13.406-11.033M740.58 624.507l11.54-20.744 4.016-4.38h-8.557l-12.028 9.367-10.528 13.396-52.55 11.45 39.224-.02"/></g>
  </g>
  <g class="persozen">
    <path fill="#444" d="M817.145 523.363c-.535-1.01-2.388-1.17-5.096-.513-1.057.257-2.05.583-3.05.808v-5.44c2-.14 4.8-.57 5.713-1.596.856-.96.11-2.856-.19-3.415-.177-.33-.503-.452-.83-.275-.33.178-.41.588-.233.917.39.72.335 1.646.22 1.875-.43.467-2.68.92-4.68 1.13v-1.885c2-.24 3.517-1.773 3.517-3.63 0-2.023-1.47-3.663-3.492-3.663-2.023 0-3.74 1.64-3.74 3.663 0 1.724 1.717 3.17 2.717 3.56v1.933c-1-.217-3.584-.655-4-1.107-.113-.228.23-1.153.618-1.876.18-.33.096-.74-.232-.917-.33-.177-.72-.054-.898.275-.3.56-1.367 2.455-.512 3.415.87.978 4.024 1.414 5.024 1.575v5.402c0-.188-1.29-.424-2.17-.608-2.607-.545-3.986-.334-4.517.664-.272.512-.237 1.057.023 1.53.462.844 1.792 1.475 4.025 1.93 1.528.314 2.938.43 2.996.434l.062.002c.35 0 .647-.27.676-.623.03-.373-.246-.7-.62-.73-2.516-.203-5.492-.895-5.913-1.662-.024-.044-.052-.097.027-.247.084-.156.805-.457 3.113.025 1.252.26 2.46.648 2.93.805.108.07.234.11.37.11h.027c.034 0 .07 0 .103-.003.1.01.206-.002.307-.04.017-.007 1.61-.618 3.28-1.022 2.81-.683 3.226-.17 3.23-.165.07.137.052.195.02.258-.428.813-3.487 1.642-6.078 1.945-.37.043-.637.378-.593.75.04.345.333.6.672.6.026 0 .053-.002.08-.005.06-.008 1.492-.176 3.056-.553 2.275-.548 3.604-1.237 4.062-2.107.254-.488.246-1.014-.025-1.525z"/>
      <ellipse fill="#BFE4FF" cx="807.907" cy="510.668" rx=".625" ry=".25"/>
      <ellipse fill="#BFE4FF" cx="810.409" cy="510.668" rx=".626" ry=".25"/>
  </g>
  <g>
    <path fill="#4B7C66" d="M333.09 180.383S534 352.883 1011.83 456.49l-3.448-18.917s-436.345-95.22-667.4-273.19"/>
    <path fill="#406855" d="M338.982 172.383c231.055 177.97 667.4 273.19 667.4 273.19l1.845 10.127c1.203.262 2.396.527 3.603.79l-3.448-18.917s-436.345-95.22-667.4-273.19l-7.89 16s.458.394 1.377 1.15l4.512-9.15z"/>
    <path fill="#36434C" d="M94.767 705.383l61.476-53.932 163.462-89.496-8.225-18.105-165.717 71L514 .382h-69l-476.317 705"/>
    <path fill="#2D393F" d="M94.604 705.383l61.557-53.932 163.505-89.496-195.43 72.43 21.518-19.727 158.45-266.274 122.19-201.814L42.496 705.382"/>
    <path fill="#3D5648" d="M244.56 585.72s2.65-78.94 88.53-104.31c85.883-25.372 30.64 64.85-88.53 104.31z"/>
    <path fill="#314438" d="M333.09 481.41s-33.92 29.86-43.338 59.113c14.703-47.25 43.34-59.114 43.34-59.114z"/>
    <path fill="#3D5648" d="M245.44 585.24s46.246-64.03 131.67-37.16c85.426 26.868-10.76 70.91-131.67 37.16z"/>
    <path fill="#314438" d="M377.11 548.08s-44.812 5.852-68.95 24.87c38.567-31.004 68.95-24.87 68.95-24.87z"/>
    <path fill="#3D5648" d="M245.026 583.784s72.715-30.837 131.89 36.378c59.174 67.214-45.92 55.096-131.89-36.378z"/>
    <path fill="#314438" d="M376.916 620.162s-41.37-18.193-71.867-14.42c49.046-6.558 71.866 14.42 71.866 14.42z"/>
    <path fill="#2D393F" d="M409.683 88.383l-341.51 520L416 88.383"/>
    <ellipse transform="rotate(25.525 84.09 591.4)" fill="#232C30" cx="84.087" cy="591.436" rx="15.913" ry="25.054"/>
    <path fill="#2D393F" d="M77.292 614.044c-7.93-3.787-9.526-16.98-3.564-29.465 4.417-9.252 11.742-15.514 18.468-16.6-7.625-1.34-17.152 5.466-22.468 16.6-5.962 12.485-4.366 25.677 3.564 29.464 2.055.98 4.335 1.23 6.688.85-.928-.164-1.83-.44-2.688-.85z"/>
    <path fill="#364C3F" d="M245.026 583.784s26.283-40.98 86.628-42.19c-41.902-1.072-62.57 9.997-86.628 42.19z"/>
    <g>
      <path fill="#36434C" d="M971.122-15.617H918l20 423-49-59-16.927 7.1L944 499.873l46 261.51 104-5"/>
    </g>
    <g fill="#2A343A">
      <path d="M923 413.383l-1.206-25.514L889 348.382l-14.82 6.216M956.122-9.617l122.044 766.762 15.834-.762-122.878-772H918l.283 6"/>
    </g>
    <path fill="#4B7C66" d="M349.807 141.28l57.726 36.44-13.354 22.055-53.198-45.436"/>
    <path fill="#406855" d="M349.807 141.28l-8.825 13.06.035.03 4.79-7.09 57.726 36.44-9.596 15.848.242.207 13.353-22.056"/>
    <path fill="#4B7C66" d="M340.982 154.34l47.283 55.203-11.154 18.422-42.913-63.582"/>
    <path fill="#406855" d="M340.982 154.34l-5.29 7.83 46.573 54.373-6.082 10.046.928 1.375 11.155-18.422"/>
    <path fill="#365646" d="M-1.95 170.915l174.014 48.977 12.55 140.65-74.446-73.788 21.75 55.528-18.984-12.3-30.07-66.135L95.32 329.6l-17.33-12.483-36.214-71.5L63.48 304.54 35.55 285.05-.023 235.126l9.806 37.05-33.02-15.798-3.945-12.58"/>
    <path fill="#2C4437" d="M137.63 251.738l6.092 68.274 40.89 40.53-12.548-140.65L-1.95 170.915l-13.103 37.85"/>
    <path fill="#406855" d="M-43.748 116.74l240.73-79.365 124.778 153.73-144.378-27.487 68.794 47.534-31.713.567-86.78-53.35 66 66.705-29.933-.94-98.128-54.778 71.4 51.522-47.745-.788-80.482-30.19 40.427 35.403-50.775 7.498-14.44-11.54"/>
    <path fill="#365646" d="M181.886 101.383l60.57 74.624 79.304 15.098-124.78-153.73-240.728 79.366 14.413 54.28"/>
  </g>
</svg>
